<svg width="38" height="38" viewBox="0 0 38 38" fill="none" xmlns="http://www.w3.org/2000/svg">
<path fill-rule="evenodd" clip-rule="evenodd" d="M10.0076 13.4207C10.3664 12.9108 11.0727 12.7868 11.5853 13.1438L18.7481 18.132L25.911 13.1438C26.4236 12.7868 27.1299 12.9108 27.4887 13.4207C27.8475 13.9307 27.7228 14.6334 27.2103 14.9903L19.3978 20.431C19.0077 20.7026 18.4886 20.7026 18.0985 20.431L10.286 14.9903C9.77348 14.6334 9.64883 13.9307 10.0076 13.4207Z" fill="#111111"/>
<path fill-rule="evenodd" clip-rule="evenodd" d="M6.25 8.97616C5.72164 8.97616 5.21492 9.18497 4.84131 9.55666C4.4677 9.92835 4.25781 10.4325 4.25781 10.9581V26.5029C4.25781 27.0285 4.4677 27.5327 4.84131 27.9043C5.21492 28.276 5.72164 28.4848 6.25 28.4848H31.25C31.7784 28.4848 32.2851 28.276 32.6587 27.9043C33.0323 27.5327 33.2422 27.0285 33.2422 26.5029V10.9581C33.2422 10.4325 33.0323 9.92835 32.6587 9.55666C32.2851 9.18497 31.7784 8.97616 31.25 8.97616H6.25ZM3.23927 7.96285C4.03777 7.16845 5.12076 6.72217 6.25 6.72217H31.25C32.3792 6.72217 33.4622 7.16845 34.2607 7.96285C35.0592 8.75724 35.5078 9.83467 35.5078 10.9581V26.5029C35.5078 27.6263 35.0592 28.7038 34.2607 29.4982C33.4622 30.2925 32.3792 30.7388 31.25 30.7388H6.25C5.12076 30.7388 4.03777 30.2925 3.23927 29.4982C2.44078 28.7038 1.99219 27.6263 1.99219 26.5029V10.9581C1.99219 9.83467 2.44078 8.75724 3.23927 7.96285Z" fill="#111111"/>
</svg>
